<svg xmlns="http://www.w3.org/2000/svg" width="512" height="512" viewBox="0 0 512 512" version="1.1"><path d="M 253.667 47.667 C 253.300 48.033, 253 87.047, 253 134.364 L 253 220.395 246.158 209.883 C 226.851 180.224, 203.902 166.976, 169 165.343 C 138.154 163.900, 111.504 172.981, 91.759 191.664 C 65.149 216.843, 49.609 254.290, 47.185 299.077 C 44.583 347.162, 54.182 386.748, 75.962 417.754 C 91.201 439.448, 113.341 453.775, 140.500 459.518 C 158.020 463.223, 187.700 460.860, 204.888 454.390 C 220.907 448.361, 234.745 436.185, 245 419.097 C 254.717 402.904, 253.929 401.967, 253.967 429.750 L 254 454 277 454 L 300 454 300 250.500 L 300 47 277.167 47 C 264.608 47, 254.033 47.300, 253.667 47.667 M 160 205.554 C 133.681 211.203, 114.104 229.230, 103.397 257.677 C 93.212 284.737, 92.874 340.998, 102.708 372.500 C 109.240 393.426, 120.943 407.924, 138.198 416.466 C 149.905 422.262, 155.936 423.892, 168.518 424.662 C 182.138 425.496, 192.478 423.394, 204.955 417.258 C 220.568 409.579, 234.280 394.333, 241.873 376.211 C 250.588 355.412, 254.521 328.231, 252.868 300.233 C 250.229 255.550, 231.384 221.524, 202.500 209.290 C 190.702 204.293, 173.089 202.745, 160 205.554 M 405 421 L 405 454 438 454 L 471 454 471 421 L 471 388 438 388 L 405 388 405 421" stroke="none" fill="#ca96fb" fill-rule="evenodd"/><path d="M 80.164 1.111 C 56.274 5.127, 30.032 22.121, 16.786 42.156 C 11.331 50.407, 6.286 61.055, 3.257 70.712 L 0.500 79.500 0.500 256 L 0.500 432.500 3.259 441.296 C 8.585 458.276, 16.239 471.209, 27.993 483.087 C 38.741 493.949, 49.412 500.785, 64.462 506.450 C 79.907 512.263, 70.831 512, 256 512 C 443.085 512, 432.057 512.350, 449.006 505.877 C 471.680 497.219, 489.814 481.187, 500.897 460 C 505.880 450.474, 511 435.244, 511 429.947 C 511 428.391, 511.450 426.840, 512 426.500 C 512.660 426.092, 513 367.803, 513 254.882 C 513 141.137, 512.665 84.089, 512 84.500 C 511.420 84.859, 511 83.881, 511 82.171 C 511 73.872, 502.999 53.790, 494.995 42 C 482.821 24.069, 462.867 9.854, 440 2.823 L 432.500 0.517 259 0.366 C 160.463 0.280, 83.194 0.602, 80.164 1.111 M 253.667 47.667 C 253.300 48.033, 253 87.047, 253 134.364 L 253 220.395 246.158 209.883 C 226.851 180.224, 203.902 166.976, 169 165.343 C 138.154 163.900, 111.504 172.981, 91.759 191.664 C 65.149 216.843, 49.609 254.290, 47.185 299.077 C 44.583 347.162, 54.182 386.748, 75.962 417.754 C 91.201 439.448, 113.341 453.775, 140.500 459.518 C 158.020 463.223, 187.700 460.860, 204.888 454.390 C 220.907 448.361, 234.745 436.185, 245 419.097 C 254.717 402.904, 253.929 401.967, 253.967 429.750 L 254 454 277 454 L 300 454 300 250.500 L 300 47 277.167 47 C 264.608 47, 254.033 47.300, 253.667 47.667 M 0.489 256 C 0.489 350.325, 0.606 388.913, 0.750 341.750 C 0.894 294.588, 0.894 217.413, 0.750 170.250 C 0.606 123.088, 0.489 161.675, 0.489 256 M 160 205.554 C 133.681 211.203, 114.104 229.230, 103.397 257.677 C 93.212 284.737, 92.874 340.998, 102.708 372.500 C 109.240 393.426, 120.943 407.924, 138.198 416.466 C 149.905 422.262, 155.936 423.892, 168.518 424.662 C 182.138 425.496, 192.478 423.394, 204.955 417.258 C 220.568 409.579, 234.280 394.333, 241.873 376.211 C 250.588 355.412, 254.521 328.231, 252.868 300.233 C 250.229 255.550, 231.384 221.524, 202.500 209.290 C 190.702 204.293, 173.089 202.745, 160 205.554 M 405 421 L 405 454 438 454 L 471 454 471 421 L 471 388 438 388 L 405 388 405 421" stroke="none" fill="#332e3f" fill-rule="evenodd"/></svg>
