<?xml version="1.0" standalone="no"?>
<!DOCTYPE svg PUBLIC "-//W3C//DTD SVG 20010904//EN"
 "http://www.w3.org/TR/2001/REC-SVG-20010904/DTD/svg10.dtd">
<svg version="1.0" xmlns="http://www.w3.org/2000/svg"
 width="594.000000pt" height="594.000000pt" viewBox="0 0 594.000000 594.000000"
 preserveAspectRatio="xMidYMid meet">
<metadata>
Created by potrace 1.14, written by Peter Selinger 2001-2017
</metadata>
<g transform="translate(0.000000,594.000000) scale(0.100000,-0.100000)"
fill="#000000" stroke="none">
<path d="M3020 5933 c-24 -9 -74 -68 -97 -114 -20 -41 -28 -62 -38 -106 -2
-10 -9 -36 -14 -58 -37 -148 -32 -472 9 -580 10 -26 2 -40 -25 -41 -62 -4
-192 -20 -235 -30 -14 -3 -36 -8 -50 -10 -163 -30 -342 -94 -545 -196 -85 -43
-121 -56 -124 -47 -10 31 -95 187 -130 238 -50 74 -82 111 -166 196 -84 85
-148 131 -221 156 -66 23 -108 16 -138 -25 -29 -38 -27 -147 4 -236 23 -66 96
-225 112 -244 4 -6 30 -42 57 -81 26 -38 80 -104 120 -146 39 -42 71 -79 71
-82 0 -2 -46 -51 -102 -109 -116 -117 -270 -304 -256 -309 2 -1 95 -2 208 -4
l205 -2 74 71 c141 135 146 139 274 226 91 61 257 153 272 150 3 -1 17 6 31
14 13 9 24 14 24 12 0 -3 25 6 55 19 30 14 55 22 55 20 0 -3 8 -1 18 4 11 6
30 12 43 15 13 3 44 11 69 17 25 6 54 13 65 15 11 2 31 5 45 8 171 36 465 34
638 -5 23 -5 59 -12 80 -15 20 -3 44 -10 52 -14 8 -4 18 -8 23 -9 4 -1 8 -1
10 -2 2 -1 36 -8 54 -12 7 -2 16 -6 19 -10 4 -4 13 -7 21 -7 29 0 315 -138
378 -182 63 -45 182 -134 191 -142 7 -6 49 -47 95 -92 l84 -80 202 0 c111 1
204 4 207 7 5 5 -139 197 -173 229 -9 9 -42 43 -74 76 l-58 61 103 104 c62 62
129 142 166 199 34 52 67 100 72 107 6 7 10 15 10 18 0 3 13 34 29 68 69 148
87 303 42 351 -13 13 -37 26 -54 29 -29 4 -125 -19 -137 -33 -3 -3 -24 -18
-48 -33 -70 -46 -208 -190 -276 -290 -64 -94 -146 -252 -146 -282 0 -32 -30
-25 -131 32 -159 90 -383 186 -483 208 -11 2 -39 9 -61 15 -37 9 -101 23 -248
51 -48 10 -57 15 -52 30 9 29 18 73 33 174 13 84 3 379 -13 405 -2 4 -7 22
-10 40 -3 18 -14 57 -25 87 -48 138 -118 203 -190 176z"/>
<path d="M410 2974 c0 -496 3 -633 13 -636 20 -7 306 -2 313 5 4 4 7 112 7
241 l1 235 203 -1 203 -1 2 -241 3 -240 162 -1 163 0 1 70 c4 267 0 1167 -5
1182 -6 18 -18 19 -166 19 l-160 0 0 -222 c0 -168 -3 -223 -12 -226 -7 -3 -98
-5 -203 -4 l-190 1 -2 200 c-1 110 -2 212 -2 226 l-1 25 -165 0 -165 0 0 -632z"/>
<path d="M1874 3596 c-2 -6 -3 -292 -2 -636 l3 -624 383 -1 c244 0 387 4 392
10 4 6 7 66 6 135 l-1 125 -220 1 c-121 1 -223 2 -226 3 -10 2 -5 218 4 227 4
5 94 9 200 9 l192 0 0 133 c1 82 -3 136 -9 140 -6 3 -96 6 -201 7 l-190 0 0
103 -1 102 31 1 c16 0 117 1 222 1 168 1 193 3 197 17 2 9 3 70 3 136 l-2 120
-389 1 c-266 0 -389 -3 -392 -10z"/>
<path d="M3035 3601 c-1 -3 -4 -286 -4 -628 -2 -499 1 -623 11 -629 15 -10
768 -12 774 -2 4 6 6 154 5 275 l-1 52 -147 0 c-82 0 -185 0 -229 1 l-81 0 0
460 c0 253 -4 464 -7 468 -9 8 -315 11 -321 3z"/>
<path d="M4195 3599 c-9 -13 -3 -1244 6 -1254 6 -8 265 -13 320 -6 3 1 5 143
5 317 -1 174 1 317 4 319 3 2 24 -13 47 -33 23 -20 63 -55 87 -77 25 -22 78
-70 118 -107 40 -37 76 -68 79 -68 7 0 59 44 126 108 75 70 195 177 203 180 4
1 6 -140 6 -314 -1 -272 1 -317 14 -323 12 -6 279 -8 313 -2 4 0 7 286 7 634
l0 633 -70 2 -70 2 -62 -53 c-35 -29 -76 -67 -93 -83 -16 -16 -72 -67 -124
-114 -51 -47 -106 -96 -121 -110 -97 -89 -123 -111 -130 -108 -7 3 -109 92
-169 148 -15 14 -66 61 -115 105 -48 44 -114 104 -145 133 -31 29 -68 59 -82
67 -26 14 -146 18 -154 4z"/>
<path d="M1291 1788 c21 -40 150 -188 240 -277 l87 -86 -59 -59 c-48 -48 -97
-108 -187 -231 -21 -29 -95 -181 -113 -232 -27 -75 -32 -105 -33 -178 -1 -100
44 -141 134 -122 59 13 178 92 250 167 53 56 97 107 125 145 17 22 32 42 35
45 19 17 130 228 130 247 0 7 56 -15 128 -51 156 -79 253 -121 302 -131 3 -1
34 -11 70 -22 104 -33 270 -65 405 -78 39 -4 72 -9 74 -11 2 -2 -1 -28 -7 -56
-34 -150 -35 -399 -4 -553 48 -231 153 -342 251 -263 24 19 67 88 77 123 2 6
12 35 23 67 11 31 25 91 32 135 12 80 19 330 10 348 -3 6 -6 19 -7 30 0 11 -4
38 -8 60 -5 22 -10 51 -12 65 -3 14 -7 33 -10 43 -4 13 1 17 23 18 15 0 37 3
48 5 11 2 34 6 50 8 48 6 97 16 140 28 22 5 47 12 55 13 8 2 15 4 15 5 0 1 13
4 29 6 16 3 38 10 48 15 11 6 27 12 36 14 72 15 308 124 423 195 83 51 99 58
99 39 0 -15 83 -193 92 -197 5 -2 8 -9 8 -15 0 -30 146 -216 238 -302 96 -90
210 -154 262 -146 44 5 59 13 75 37 20 31 27 131 13 178 -5 17 -11 38 -13 46
-2 8 -12 39 -24 67 -74 187 -212 382 -357 503 -51 43 -50 46 13 108 72 72 134
141 164 184 13 18 26 35 30 38 3 3 11 15 18 27 l11 22 -211 0 -210 -1 -37 -31
c-20 -18 -46 -40 -57 -51 -76 -70 -249 -199 -311 -232 -11 -6 -51 -28 -87 -48
-37 -20 -72 -36 -78 -36 -7 0 -20 -6 -28 -13 -23 -19 -231 -87 -316 -103 -11
-2 -42 -8 -70 -14 -149 -29 -476 -32 -606 -4 -13 2 -40 7 -59 10 -53 7 -233
61 -303 90 -177 74 -350 177 -477 283 -36 30 -67 57 -70 60 -3 3 -26 25 -52
49 l-48 42 -210 0 -211 0 12 -22z"/>
</g>
</svg>
